<svg xmlns="http://www.w3.org/2000/svg" viewBox="0 0 300 620" width="300" height="620" role="img" aria-label="Investments and real estate screenshot placeholder">
  <rect width="300" height="620" fill="#0F172A"/>
  <text x="24" y="46" font-family="Georgia, serif" font-size="18" fill="#FFD700">Investments</text>
  <line x1="24" y1="60" x2="276" y2="60" stroke="#22304D"/>

  <!-- simple ascending chart -->
  <polyline points="24,300 60,270 96,286 132,230 168,244 204,180 240,196 276,120" fill="none" stroke="#FFD700" stroke-width="3" stroke-linecap="round" stroke-linejoin="round"/>
  <polyline points="24,300 60,270 96,286 132,230 168,244 204,180 240,196 276,120 276,340 24,340" fill="#FFD70022" stroke="none"/>

  <text x="24" y="112" font-family="Arial, sans-serif" font-size="11" fill="#8493AB">PORTFOLIO VALUE</text>
  <text x="24" y="142" font-family="'Courier New', monospace" font-size="24" fill="#F8FAFC">$412,880</text>

  <g font-family="Arial, sans-serif">
    <rect x="24" y="368" width="252" height="60" rx="14" fill="#141F38"/>
    <text x="44" y="398" font-size="13" fill="#E2E8F0">Downtown Apartments</text>
    <text x="256" y="398" text-anchor="end" font-size="12" fill="#34D399">+4.2%</text>

    <rect x="24" y="440" width="252" height="60" rx="14" fill="#141F38"/>
    <text x="44" y="470" font-size="13" fill="#E2E8F0">Beachfront Resort</text>
    <text x="256" y="470" text-anchor="end" font-size="12" fill="#34D399">+6.8%</text>

    <rect x="24" y="512" width="252" height="60" rx="14" fill="#141F38"/>
    <text x="44" y="542" font-size="13" fill="#E2E8F0">Commercial Tower</text>
    <text x="256" y="542" text-anchor="end" font-size="12" fill="#34D399">+3.1%</text>
  </g>
</svg>
