<svg xmlns="http://www.w3.org/2000/svg" viewBox="0 0 300 620" width="300" height="620" role="img" aria-label="Business empire dashboard screenshot placeholder">
  <rect width="300" height="620" fill="#0F172A"/>
  <text x="24" y="46" font-family="Georgia, serif" font-size="18" fill="#FFD700">Business Empire</text>
  <line x1="24" y1="60" x2="276" y2="60" stroke="#22304D"/>
  <g font-family="Arial, sans-serif">
    <rect x="24" y="80" width="252" height="66" rx="14" fill="#141F38"/>
    <text x="44" y="112" font-size="13" fill="#E2E8F0">Coffee Shop Chain</text>
    <text x="44" y="130" font-size="10" fill="#8493AB">Owned: 24</text>
    <text x="256" y="120" text-anchor="end" font-size="12" fill="#34D399">+$820/s</text>

    <rect x="24" y="158" width="252" height="66" rx="14" fill="#141F38"/>
    <text x="44" y="190" font-size="13" fill="#E2E8F0">Fashion Retail Group</text>
    <text x="44" y="208" font-size="10" fill="#8493AB">Owned: 16</text>
    <text x="256" y="198" text-anchor="end" font-size="12" fill="#34D399">+$540/s</text>

    <rect x="24" y="236" width="252" height="66" rx="14" fill="#141F38"/>
    <text x="44" y="268" font-size="13" fill="#E2E8F0">Tech Startup Inc.</text>
    <text x="44" y="286" font-size="10" fill="#8493AB">Owned: 7</text>
    <text x="256" y="276" text-anchor="end" font-size="12" fill="#34D399">+$3,120/s</text>

    <rect x="24" y="314" width="252" height="66" rx="14" fill="#141F38"/>
    <text x="44" y="346" font-size="13" fill="#E2E8F0">Logistics Network</text>
    <text x="44" y="364" font-size="10" fill="#8493AB">Owned: 12</text>
    <text x="256" y="354" text-anchor="end" font-size="12" fill="#34D399">+$1,410/s</text>
  </g>
  <rect x="24" y="410" width="252" height="1" fill="#22304D"/>
  <text x="24" y="440" font-family="Arial, sans-serif" font-size="11" fill="#8493AB">TOTAL PASSIVE INCOME</text>
  <text x="24" y="470" font-family="'Courier New', monospace" font-size="26" fill="#FFD700">$5,890 / sec</text>
</svg>
